<?xml version="1.0" encoding="utf-8"?>
<!-- Generator: Adobe Illustrator 19.0.0, SVG Export Plug-In . SVG Version: 6.00 Build 0)  -->
<svg version="1.1" id="Calque_1" xmlns="http://www.w3.org/2000/svg" xmlns:xlink="http://www.w3.org/1999/xlink" x="0px" y="0px"
	 viewBox="0 0 100 500" style="enable-background:new 0 0 100 500;" xml:space="preserve">
<style type="text/css">
	.st0{fill:#E0BC5D;}
	.st1{fill:#5D5F88;}
	.st2{opacity:0;fill:#5D5F88;}
	.st3{fill:#FFFFFF;}
</style>
<g id="XMLID_28_">
	<path id="XMLID_30_" class="st0" d="M50,400c-27.6,0-50,22.4-50,50s22.4,50,50,50c27.6,0,50-22.4,50-50S77.6,400,50,400z M50,496.6
		c-25.7,0-46.6-20.9-46.6-46.6s20.9-46.6,46.6-46.6c25.7,0,46.6,20.9,46.6,46.6S75.7,496.6,50,496.6z"/>
	<path id="XMLID_29_" class="st1" d="M44.5,438.8v4.2h-4.2v7h4.2v20.2h8.6v-20.2H59l0.7-7h-6.3v-3.5c0-1.8,0.2-2.8,2.8-2.8h3.5v-7
		h-5.8C47,429.7,44.5,433.2,44.5,438.8z"/>
</g>
<g id="XMLID_20_">
	<path id="XMLID_22_" class="st0" d="M50,300c-27.6,0-50,22.4-50,50c0,27.6,22.4,50,50,50c27.6,0,50-22.4,50-50
		C100,322.4,77.6,300,50,300z M50,396.5c-25.7,0-46.6-20.9-46.6-46.5c0-25.7,20.9-46.6,46.6-46.6c25.7,0,46.6,20.9,46.6,46.6
		C96.6,375.7,75.7,396.5,50,396.5z"/>
	<path id="XMLID_21_" class="st1" d="M67.4,334.7c-1.4,0.9-3.2,1.6-4.7,1.9c-1.4-1.6-3.3-2.5-5.4-2.5c-4.2,0-7.5,3.5-7.5,7.9
		c0,0.7,0,1.2,0.2,1.8c-6.3-0.4-11.9-3.5-15.6-8.2c-0.7,1.2-1.1,2.6-1.1,4c0,2.8,1.4,5.3,3.3,6.7c-1.2,0-2.5-0.3-3.5-1v0.2
		c0,3.9,2.6,7,6.1,7.9c-0.7,0.2-1.2,0.4-1.9,0.4c-0.5,0-0.9,0-1.4-0.2c0.9,3.2,3.7,5.4,7,5.6c-2.6,2.1-5.8,3.3-9.5,3.3
		c-0.5,0-1.2,0-1.8-0.2c3.3,2.3,7.4,3.5,11.6,3.5c13.9,0,21.6-12.1,21.6-22.6c0-0.4,0-0.7,0-1.1c1.4-1.1,2.8-2.5,3.7-4.2
		c-1.4,0.7-2.8,1-4.4,1.2C65.6,338.1,66.8,336.5,67.4,334.7z"/>
</g>
<g id="XMLID_12_">
	<path id="XMLID_14_" class="st0" d="M50,200c-27.6,0-50,22.4-50,50c0,27.6,22.4,50,50,50c27.6,0,50-22.4,50-50
		C100,222.4,77.6,200,50,200z M50,296.5c-25.7,0-46.6-20.9-46.6-46.6c0-25.7,20.9-46.6,46.6-46.6c25.7,0,46.6,20.9,46.6,46.6
		C96.6,275.7,75.7,296.5,50,296.5z"/>
	<path id="XMLID_13_" class="st1" d="M51.1,227.2c-12.3,0-18.6,8.9-18.6,16.3c0,4.6,1.8,8.6,5.3,10c0.5,0.2,1.1,0,1.2-0.7
		c0.2-0.5,0.4-1.6,0.5-2.1c0.2-0.7,0.2-0.9-0.3-1.4c-1.1-1.2-1.8-2.8-1.8-5.1c0-6.7,4.9-12.6,12.8-12.6c7,0,10.9,4.4,10.9,10
		c0,7.5-3.3,13.9-8.2,13.9c-2.8,0-4.7-2.3-4-5.1c0.7-3.3,2.3-6.8,2.3-9.3c0-2.1-1.2-3.9-3.5-3.9c-2.8,0-5.1,3-5.1,6.8
		c0,2.5,0.9,4.2,0.9,4.2s-2.8,12.1-3.3,14.2c-1.1,4.2-0.2,9.5,0,10c0,0.3,0.4,0.3,0.7,0.2c0.2-0.3,3.5-4.4,4.7-8.6
		c0.4-1.2,1.8-7.2,1.8-7.2c0.9,1.8,3.5,3.3,6.3,3.3c8.4,0,14-7.7,14-17.9C67.5,234.6,61,227.2,51.1,227.2z"/>
</g>
<g id="XMLID_2_">
	<path id="XMLID_4_" class="st2" d="M50,100c-27.6,0-50,22.4-50,50c0,27.6,22.4,50,50,50c27.6,0,50-22.4,50-50
		C100,122.4,77.6,100,50,100z M66.1,150.3c0,0.1,0,0.2-0.1,0.3c0,0,0,0,0,0c0,0.1-0.1,0.1-0.1,0.2c0,0.1-0.1,0.1-0.1,0.1
		c0,0.1-0.1,0.1-0.1,0.2c0,0,0,0,0,0c0,0,0,0,0,0c0,0,0,0,0,0l-6.6,6.3c-0.3,0.3-0.8,0.5-1.2,0.5c-0.5,0-0.9-0.2-1.2-0.5
		c-0.7-0.7-0.6-1.8,0.1-2.4l3.5-3.3H35.6c-1,0-1.7-0.8-1.7-1.7c0-1,0.8-1.7,1.7-1.7h24.5l-3.5-3.4c-0.7-0.7-0.7-1.7-0.1-2.4
		c0.7-0.7,1.7-0.7,2.4-0.1l6.6,6.3c0,0,0,0,0,0c0,0,0,0,0,0c0,0,0,0,0,0c0.1,0.1,0.1,0.1,0.1,0.2c0,0,0.1,0.1,0.1,0.1
		c0,0.1,0.1,0.1,0.1,0.2c0,0,0,0,0,0c0,0.1,0,0.2,0.1,0.3c0,0.1,0.1,0.2,0.1,0.3c0,0,0,0,0,0c0,0,0,0,0,0
		C66.1,150.1,66.1,150.2,66.1,150.3z"/>
	<path id="XMLID_3_" class="st3" d="M66.1,150c0-0.1,0-0.2-0.1-0.3c0-0.1,0-0.2-0.1-0.3c0,0,0,0,0,0c0-0.1-0.1-0.1-0.1-0.2
		c0-0.1-0.1-0.1-0.1-0.1c0-0.1-0.1-0.1-0.1-0.2c0,0,0,0,0,0c0,0,0,0,0,0c0,0,0,0,0,0l-6.6-6.3c-0.7-0.7-1.8-0.6-2.4,0.1
		c-0.7,0.7-0.6,1.8,0.1,2.4l3.5,3.4H35.6c-1,0-1.7,0.8-1.7,1.7c0,1,0.8,1.7,1.7,1.7h24.5l-3.5,3.3c-0.7,0.7-0.7,1.7-0.1,2.4
		c0.3,0.4,0.8,0.5,1.2,0.5c0.4,0,0.9-0.2,1.2-0.5l6.6-6.3c0,0,0,0,0,0c0,0,0,0,0,0c0,0,0,0,0,0c0.1-0.1,0.1-0.1,0.1-0.2
		c0,0,0.1-0.1,0.1-0.1c0-0.1,0.1-0.1,0.1-0.2c0,0,0,0,0,0c0-0.1,0-0.2,0.1-0.3C66.1,150.2,66.1,150.1,66.1,150
		C66.1,150,66.1,150,66.1,150C66.1,150,66.1,150,66.1,150z"/>
</g>
<g id="XMLID_7_">
	<path id="XMLID_9_" class="st2" d="M50,0C22.4,0,0,22.4,0,50c0,27.6,22.4,50,50,50c27.6,0,50-22.4,50-50C100,22.4,77.6,0,50,0z
		 M71.3,39.9L46.5,62.7c-0.3,0.3-0.8,0.5-1.2,0.5c-0.4,0-0.8-0.1-1.1-0.4L28.8,50.5c-0.8-0.6-0.9-1.7-0.3-2.5
		c0.6-0.8,1.7-0.9,2.5-0.3l14.3,11.4l23.7-21.8c0.7-0.7,1.8-0.6,2.5,0.1C72.1,38.1,72,39.2,71.3,39.9z"/>
	<path id="XMLID_8_" class="st3" d="M68.9,37.3L45.3,59.1L31,47.8c-0.8-0.6-1.9-0.5-2.5,0.3c-0.6,0.8-0.5,1.9,0.3,2.5l15.5,12.3
		c0.3,0.3,0.7,0.4,1.1,0.4c0.4,0,0.9-0.2,1.2-0.5l24.8-22.9c0.7-0.7,0.8-1.8,0.1-2.5C70.8,36.7,69.6,36.6,68.9,37.3z"/>
</g>
</svg>
