<?xml version="1.0" encoding="utf-8"?>
<!-- Generator: Adobe Illustrator 19.0.0, SVG Export Plug-In . SVG Version: 6.00 Build 0)  -->
<svg version="1.1" id="Calque_1" xmlns="http://www.w3.org/2000/svg" xmlns:xlink="http://www.w3.org/1999/xlink" x="0px" y="0px"
	 viewBox="-547 242.4 100 600" style="enable-background:new -547 242.4 100 600;" xml:space="preserve">
<style type="text/css">
	.st0{fill:#E0BC5D;}
	.st1{fill:#5D5F88;}
	.st2{fill:#5D5F88;fill-opacity:0;}
	.st3{fill:#FFFFFF;}
</style>
<g id="XMLID_28_">
	<path id="XMLID_30_" class="st0" d="M-497,642.4c-27.6,0-50,22.4-50,50s22.4,50,50,50c27.6,0,50-22.4,50-50
		C-447.1,664.8-469.5,642.4-497,642.4z M-497,738.9c-25.7,0-46.6-20.9-46.6-46.6s20.9-46.6,46.6-46.6s46.6,20.9,46.6,46.6
		S-471.4,738.9-497,738.9z"/>
	<path id="XMLID_29_" class="st1" d="M-502.5,681.2v4.2h-4.2v7h4.2v20.2h8.6v-20.2h5.9l0.7-7h-6.3v-3.5c0-1.8,0.2-2.8,2.8-2.8h3.5
		v-7h-5.8C-500,672.1-502.5,675.6-502.5,681.2z"/>
</g>
<g id="XMLID_20_">
	<path id="XMLID_22_" class="st0" d="M-497,542.4c-27.6,0-50,22.4-50,50c0,27.6,22.4,50,50,50c27.6,0,50-22.4,50-50
		C-447,564.8-469.5,542.4-497,542.4z M-497,638.8c-25.7,0-46.6-20.9-46.6-46.5c0-25.7,20.9-46.6,46.6-46.6s46.6,20.9,46.6,46.6
		C-450.5,618-471.4,638.8-497,638.8z"/>
	<path id="XMLID_21_" class="st1" d="M-479.7,577.1c-1.4,0.9-3.2,1.6-4.7,1.9c-1.4-1.6-3.3-2.5-5.4-2.5c-4.2,0-7.5,3.5-7.5,7.9
		c0,0.7,0,1.2,0.2,1.8c-6.3-0.4-11.9-3.5-15.6-8.2c-0.7,1.2-1.1,2.6-1.1,4c0,2.8,1.4,5.3,3.3,6.7c-1.2,0-2.5-0.3-3.5-1v0.2
		c0,3.9,2.6,7,6.1,7.9c-0.7,0.2-1.2,0.4-1.9,0.4c-0.5,0-0.9,0-1.4-0.2c0.9,3.2,3.7,5.4,7,5.6c-2.6,2.1-5.8,3.3-9.5,3.3
		c-0.5,0-1.2,0-1.8-0.2c3.3,2.3,7.4,3.5,11.6,3.5c13.9,0,21.6-12.1,21.6-22.6c0-0.4,0-0.7,0-1.1c1.4-1.1,2.8-2.5,3.7-4.2
		c-1.4,0.7-2.8,1-4.4,1.2C-481.5,580.5-480.3,578.9-479.7,577.1z"/>
</g>
<g id="XMLID_12_">
	<path id="XMLID_14_" class="st0" d="M-497,442.4c-27.6,0-50,22.4-50,50c0,27.6,22.4,50,50,50c27.6,0,50-22.4,50-50
		C-447.1,464.8-469.5,442.4-497,442.4z M-497,538.8c-25.7,0-46.6-20.9-46.6-46.6s20.9-46.6,46.6-46.6s46.6,20.9,46.6,46.6
		C-450.5,518-471.4,538.8-497,538.8z"/>
	<path id="XMLID_13_" class="st1" d="M-496,469.6c-12.3,0-18.6,8.9-18.6,16.3c0,4.6,1.8,8.6,5.3,10c0.5,0.2,1.1,0,1.2-0.7
		c0.2-0.5,0.4-1.6,0.5-2.1c0.2-0.7,0.2-0.9-0.3-1.4c-1.1-1.2-1.8-2.8-1.8-5.1c0-6.7,4.9-12.6,12.8-12.6c7,0,10.9,4.4,10.9,10
		c0,7.5-3.3,13.9-8.2,13.9c-2.8,0-4.7-2.3-4-5.1c0.7-3.3,2.3-6.8,2.3-9.3c0-2.1-1.2-3.9-3.5-3.9c-2.8,0-5.1,3-5.1,6.8
		c0,2.5,0.9,4.2,0.9,4.2s-2.8,12.1-3.3,14.2c-1.1,4.2-0.2,9.5,0,10c0,0.3,0.4,0.3,0.7,0.2c0.2-0.3,3.5-4.4,4.7-8.6
		c0.4-1.2,1.8-7.2,1.8-7.2c0.9,1.8,3.5,3.3,6.3,3.3c8.4,0,14-7.7,14-17.9C-479.6,477-486.1,469.6-496,469.6z"/>
</g>
<g id="XMLID_2_">
	<path id="XMLID_4_" class="st2" d="M-497,342.4c-27.6,0-50,22.4-50,50c0,27.6,22.4,50,50,50c27.6,0,50-22.4,50-50
		C-447,364.8-469.5,342.4-497,342.4z M-481,392.6c0,0.1,0,0.2-0.1,0.3l0,0c0,0.1-0.1,0.1-0.1,0.2c0,0.1-0.1,0.1-0.1,0.1
		c0,0.1-0.1,0.1-0.1,0.2l0,0l0,0l0,0l-6.6,6.3c-0.3,0.3-0.8,0.5-1.2,0.5c-0.5,0-0.9-0.2-1.2-0.5c-0.7-0.7-0.6-1.8,0.1-2.4l3.5-3.3
		h-24.7c-1,0-1.7-0.8-1.7-1.7c0-1,0.8-1.7,1.7-1.7h24.5l-3.5-3.4c-0.7-0.7-0.7-1.7-0.1-2.4c0.7-0.7,1.7-0.7,2.4-0.1l6.6,6.3l0,0l0,0
		l0,0c0.1,0.1,0.1,0.1,0.1,0.2l0.1,0.1c0,0.1,0.1,0.1,0.1,0.2l0,0c0,0.1,0,0.2,0.1,0.3c0,0.1,0.1,0.2,0.1,0.3l0,0l0,0
		C-481,392.4-481,392.5-481,392.6z"/>
	<path id="XMLID_3_" class="st3" d="M-481,392.3c0-0.1,0-0.2-0.1-0.3c0-0.1,0-0.2-0.1-0.3l0,0c0-0.1-0.1-0.1-0.1-0.2
		c0-0.1-0.1-0.1-0.1-0.1c0-0.1-0.1-0.1-0.1-0.2l0,0l0,0l0,0l-6.6-6.3c-0.7-0.7-1.8-0.6-2.4,0.1c-0.7,0.7-0.6,1.8,0.1,2.4l3.5,3.4
		h-24.6c-1,0-1.7,0.8-1.7,1.7c0,1,0.8,1.7,1.7,1.7h24.5l-3.5,3.3c-0.7,0.7-0.7,1.7-0.1,2.4c0.3,0.4,0.8,0.5,1.2,0.5
		c0.4,0,0.9-0.2,1.2-0.5l6.6-6.3l0,0l0,0l0,0c0.1-0.1,0.1-0.1,0.1-0.2l0.1-0.1c0-0.1,0.1-0.1,0.1-0.2l0,0c0-0.1,0-0.2,0.1-0.3
		C-481,392.5-481,392.4-481,392.3L-481,392.3L-481,392.3z"/>
</g>
<g id="XMLID_7_">
	<path id="XMLID_9_" class="st2" d="M-497,242.4c-27.6,0-50,22.4-50,50c0,27.6,22.4,50,50,50c27.6,0,50-22.4,50-50
		C-447,264.8-469.5,242.4-497,242.4z M-475.8,282.2l-24.8,22.8c-0.3,0.3-0.8,0.5-1.2,0.5c-0.4,0-0.8-0.1-1.1-0.4l-15.4-12.3
		c-0.8-0.6-0.9-1.7-0.3-2.5c0.6-0.8,1.7-0.9,2.5-0.3l14.3,11.4l23.7-21.8c0.7-0.7,1.8-0.6,2.5,0.1
		C-475,280.5-475.1,281.6-475.8,282.2z"/>
	<path id="XMLID_8_" class="st3" d="M-478.2,279.7l-23.6,21.8l-14.3-11.3c-0.8-0.6-1.9-0.5-2.5,0.3c-0.6,0.8-0.5,1.9,0.3,2.5
		l15.5,12.3c0.3,0.3,0.7,0.4,1.1,0.4s0.9-0.2,1.2-0.5l24.8-22.9c0.7-0.7,0.8-1.8,0.1-2.5C-476.3,279.1-477.5,279-478.2,279.7z"/>
</g>
<g id="XMLID_1_">
	<path id="XMLID_11_" class="st0" d="M-497,742.4c-27.6,0-50,22.4-50,50s22.4,50,50,50c27.6,0,50-22.4,50-50S-469.4,742.4-497,742.4
		z M-497,838.9c-25.7,0-46.6-20.9-46.6-46.6s20.9-46.6,46.6-46.6s46.6,20.9,46.6,46.6S-471.3,838.9-497,838.9z"/>
</g>
</svg>
