<?xml version="1.0" encoding="utf-8"?>
<!-- Generator: Adobe Illustrator 19.0.0, SVG Export Plug-In . SVG Version: 6.00 Build 0)  -->
<svg version="1.1" id="Calque_1" xmlns="http://www.w3.org/2000/svg" xmlns:xlink="http://www.w3.org/1999/xlink" x="0px" y="0px"
	 viewBox="0 0 100 500" style="enable-background:new 0 0 100 500;" xml:space="preserve">
<style type="text/css">
	.st0{fill:#5D5F88;}
	.st1{fill:#FFFFFF;}
</style>
<g id="XMLID_2_">
	<path id="XMLID_3_" class="st0" d="M51.1,27.2c-12.3,0-18.6,8.9-18.6,16.3c0,4.6,1.8,8.6,5.3,10c0.5,0.2,1.1,0,1.2-0.7
		c0.2-0.5,0.4-1.6,0.5-2.1c0.2-0.7,0.2-0.9-0.3-1.4c-1.1-1.2-1.8-2.8-1.8-5.1c0-6.7,4.9-12.6,12.8-12.6c7,0,10.9,4.4,10.9,10
		c0,7.5-3.3,13.9-8.2,13.9c-2.8,0-4.7-2.3-4-5.1c0.7-3.3,2.3-6.8,2.3-9.3c0-2.1-1.2-3.9-3.5-3.9c-2.8,0-5.1,3-5.1,6.8
		c0,2.5,0.9,4.2,0.9,4.2S40.5,60.4,40,62.5c-1.1,4.2-0.2,9.5,0,10c0,0.3,0.4,0.3,0.7,0.2c0.2-0.3,3.5-4.4,4.7-8.6
		c0.4-1.2,1.8-7.2,1.8-7.2c0.9,1.8,3.5,3.3,6.3,3.3c8.4,0,14-7.7,14-17.9C67.5,34.6,61,27.2,51.1,27.2z"/>
</g>
<g id="XMLID_18_">
	<path id="XMLID_19_" class="st0" d="M44.6,238.8l0,4.2l-4.2,0l0,7l4.2,0l0,20.2l8.6,0l0-20.2l5.8,0l0.7-7l-6.3,0l0-3.5
		c0-1.8,0.2-2.8,2.8-2.8l3.5,0l0-7l-5.8,0C47,229.7,44.6,233.2,44.6,238.8z"/>
</g>
<g id="XMLID_10_">
	<path id="XMLID_11_" class="st0" d="M67.4,134.8c-1.4,0.9-3.2,1.6-4.7,1.9c-1.4-1.6-3.3-2.5-5.4-2.5c-4.2,0-7.5,3.5-7.5,7.9
		c0,0.7,0,1.2,0.2,1.8c-6.3-0.4-11.9-3.5-15.6-8.3c-0.7,1.2-1.1,2.6-1.1,4c0,2.8,1.4,5.3,3.3,6.7c-1.2,0-2.5-0.4-3.5-1.1l0,0.2
		c0,3.9,2.6,7,6.1,7.9c-0.7,0.2-1.2,0.3-1.9,0.3c-0.5,0-0.9,0-1.4-0.2c0.9,3.2,3.7,5.4,7,5.6c-2.6,2.1-5.8,3.3-9.5,3.3
		c-0.5,0-1.2,0-1.8-0.2c3.3,2.3,7.4,3.5,11.6,3.5c13.9,0,21.6-12.1,21.6-22.6c0-0.4,0-0.7,0-1.1c1.4-1.1,2.8-2.5,3.7-4.2
		c-1.4,0.7-2.8,1-4.4,1.2C65.6,138.1,66.8,136.5,67.4,134.8z"/>
</g>
<g id="XMLID_26_">
	<path id="XMLID_27_" class="st1" d="M66.1,350c0-0.1,0-0.2-0.1-0.3c0-0.1,0-0.2-0.1-0.3c0,0,0,0,0,0c0-0.1-0.1-0.1-0.1-0.2
		c0-0.1-0.1-0.1-0.1-0.1c0-0.1-0.1-0.1-0.1-0.2c0,0,0,0,0,0c0,0,0,0,0,0c0,0,0,0,0,0l-6.6-6.3c-0.7-0.7-1.8-0.6-2.4,0.1
		c-0.7,0.7-0.6,1.8,0.1,2.4l3.5,3.4H35.6c-1,0-1.7,0.8-1.7,1.7c0,1,0.8,1.7,1.7,1.7h24.5l-3.5,3.3c-0.7,0.7-0.7,1.7-0.1,2.4
		c0.3,0.4,0.8,0.5,1.2,0.5c0.4,0,0.9-0.2,1.2-0.5l6.6-6.3c0,0,0,0,0,0c0,0,0,0,0,0c0,0,0,0,0,0c0.1-0.1,0.1-0.1,0.1-0.2
		c0,0,0.1-0.1,0.1-0.1c0-0.1,0.1-0.1,0.1-0.2c0,0,0,0,0,0c0-0.1,0-0.2,0.1-0.3C66.1,350.2,66.1,350.1,66.1,350
		C66.1,350,66.1,350,66.1,350C66.1,350,66.1,350,66.1,350z"/>
</g>
<g>
	<path id="XMLID_31_" class="st0" d="M71.3,439.9l-24.8,22.9c-0.3,0.3-0.8,0.5-1.2,0.5c-0.4,0-0.8-0.1-1.1-0.4l-15.5-12.3
		c-0.8-0.6-0.9-1.7-0.3-2.5c0.6-0.8,1.7-0.9,2.5-0.3l14.3,11.4l23.7-21.8c0.7-0.7,1.8-0.6,2.5,0.1C72.1,438.1,72,439.2,71.3,439.9z"
		/>
	<path id="XMLID_34_" class="st1" d="M68.9,437.3l-23.7,21.8L31,447.7c-0.8-0.6-1.9-0.5-2.5,0.3c-0.6,0.8-0.5,1.9,0.3,2.5l15.5,12.3
		c0.3,0.3,0.7,0.4,1.1,0.4c0.4,0,0.9-0.2,1.2-0.5l24.8-22.9c0.7-0.7,0.8-1.8,0.1-2.5C70.8,436.7,69.6,436.6,68.9,437.3z"/>
</g>
</svg>
