<?xml version="1.0" encoding="utf-8"?>
<!-- Generator: Adobe Illustrator 19.0.0, SVG Export Plug-In . SVG Version: 6.00 Build 0)  -->
<svg version="1.1" id="Calque_1" xmlns="http://www.w3.org/2000/svg" xmlns:xlink="http://www.w3.org/1999/xlink" x="0px" y="0px"
	 viewBox="0 0 50 50" style="enable-background:new 0 0 50 50;" xml:space="preserve">
<style type="text/css">
	.st0{fill:#E4CE76;}
</style>
<path class="st0" d="M25,0C11.2,0,0,11.2,0,25s11.2,25,25,25s25-11.2,25-25S38.8,0,25,0 M9.4,8.5c4.1-3.9,9.6-6.3,15.6-6.3
	c6.1,0,11.5,2.4,15.6,6.3c3.6,3.8,5.8,8.9,5.8,14.5c0,11.8-9.6,21.4-21.4,21.4c-11.8,0-21.4-9.6-21.4-21.4
	C3.6,17.5,5.8,12.4,9.4,8.5 M25,47.7C12.5,47.7,2.3,37.5,2.3,25c0-1.2,0.1-2.3,0.3-3.4c0,0.5-0.1,1-0.1,1.5
	c0,12.4,10.1,22.5,22.5,22.5c12.4,0,22.5-10.1,22.5-22.5c0-0.5,0-1-0.1-1.5c0.2,1.1,0.3,2.3,0.3,3.4C47.7,37.5,37.5,47.7,25,47.7"/>
<path id="XMLID_1_" class="st0" d="M25,29.6c2.6,0,4.6-2,4.6-4.6S25,15.8,25,15.8s-4.6,6.6-4.6,9.2S22.4,29.6,25,29.6"/>
</svg>
